<mxfile host="app.diagrams.net" modified="2023-06-19T09:59:21.704Z" agent="Mozilla/5.0 (Macintosh; Intel Mac OS X 10_15_7) AppleWebKit/537.36 (KHTML, like Gecko) Chrome/113.0.0.0 Safari/537.36" version="21.3.8" etag="Z3fxXlFNoYkTULfrIVr6" type="github">
  <diagram name="第 1 页" id="h3xbiUEV7ukrskCkNL1r">
    <mxGraphModel>
      <root>
        <mxCell id="0" />
        <mxCell id="1" parent="0" />
      </root>
    </mxGraphModel>
  </diagram>
</mxfile>
